**ABCDEFGHIJKLMNOPQRSTUVWXYZabcdefghijklmnopqrstuvwxyz**************************
**PARASOLID !"#$%&'()*+,-./:;<=>?@[\]^_`{|}~0123456789**************************
**PART1;
MC=AMD64;
MC_MODEL=Intel64 Family 6 Model 158 Stepping 10, GenuineIntel;
MC_ID=unknown;
OS=Windows_NT;
OS_RELEASE=unknown;
FRU=Parasolid Version 30.0, build 298, 12-15-2017;
APPL=SOLIDWORKS 2018-2018134;
SITE=;
USER=unknown;
FORMAT=text;
GUISE=transmit;
KEY=wing_assembly_estimate;
FILE=wing_assembly_estimate.x_t;
DATE=Wed Jan  9 03:10:43 2019;
**PART2;
SCH=SCH_3000298_30000;
USFLD_SIZE=0;
**PART3;
**END_OF_HEADER*****************************************************************
T51 : TRANSMIT FILE created by modeller version 300029823 SCH_3000298_30000_1300
6205 0 10 19 CCCCCCCI4 mesh1006 0 I8 polyline1008 0 CCCCCCCCCCZ1 23 2 3 0 0 0 0
 0 0 0 1e3 1e-8 0 0 0 1 0 1 4 81 255 1 2 23 5 1 0 0 0 0 0 70 11 CI9 list_type0 0
 1 uI10 notransmit0 0 1 lCCCDCCDI12 finger_index0 0 1 dI12 finger_block1012 0 CZ
3 0 4 T1 0 0 1 20 1 6 6 11 255 4 21 0 1 7 8 1 9 0 0 0 12 33 CCCCCCI4 mesh1006 0
 I8 polyline1008 0 CCCCCCCDI5 owner1040 0 CCCCCCI13 boundary_mesh1006 0 I17 boun
dary_polyline1008 0 CCCA16 index_map_offset0 0 1 dA9 index_map82 0 A17 node_id_i
ndex_map82 0 A20 schema_embedding_map82 0 A5 child12 0 A14 lowest_node_id0 0 1 d
Z7 173 10 11 0 0 0 0 0 0 1e3 1e-8 4 12 0 1 0 1 1 13 14 15 16 0 0 17 18 19 0 0 0
 0 0 0 100 255 8 22 4 0 0 1 1595945597898665e-31 -1595945597898665e-31 -15959455
97898665e-31 0 -1 -1595945597898665e-31 1 254704235145212e-46 .887991307059956 2
.456163825741845 3.726824114847805 1 3 ?11 9 19 0 1 12 20 1 21 4 21 0 12 12 179
 22 23 0 0 0 0 0 0 1e3 1e-8 9 24 7 1 0 1 1 25 26 27 28 0 0 29 30 31 0 0 0 0 0 0
 100 20 20 9 0 0 -1224646799147352e-31 1 0 -1 -1224646799147352e-31 0 0 0 1 1.25
6504484829356 2.456163825741845 3.784489089833435 1 3 ?11 21 17 0 1 12 32 1 33 9
 33 9 100 32 18 21 0 0 -1224646799147354e-31 1 0 -1 -1224646799147354e-31 246519
032881566e-46 893631494195678e-46 0 1 1.696504484829355 2.456163825741845 3.7844
89089833435 1 3 ?11 33 15 0 1 12 34 1 35 21 35 21 100 34 16 33 0 0 -122464679914
7352e-31 1 0 -1 -1224646799147352e-31 0 0 0 1 1.256504484829356 2.45616382574184
5 3.124489089833435 1 3 ?11 35 13 0 1 12 36 1 37 33 0 33 100 36 14 35 0 0 300926
5538105055e-47 1 1734723475976805e-31 -1 0 1734723475976805e-31 1734723475976805
e-31 -1734723475976805e-31 1 1.696504484829355 2.456163825741845 3.1244890898334
35 1 3 ?11 37 11 0 1 24 38 1 39 35 0 0 12 24 173 40 41 0 0 0 0 0 0 1e3 1e-8 37 4
2 12 1 0 1 1 43 44 45 46 0 0 47 48 49 0 0 0 0 0 0 100 38 12 37 0 0 1 0 0 0 0 1 0
 -1 0 1.676504484829355 2.436163825741845 4.44448908983344 1 3 ?11 39 9 0 1 42 5
0 1 51 37 51 0 12 42 173 52 53 0 0 0 0 0 0 1e3 1e-8 39 54 24 1 0 1 1 55 56 57 58
 0 0 59 60 61 0 0 0 0 0 0 100 50 10 39 0 0 1499759782661858e-47 -1 1224646799147
352e-31 1 0 -1224646799147352e-31 1224646799147352e-31 1224646799147352e-31 1 2.
11650448482936 2.436163825741845 4.44448908983344 1 3 ?11 51 7 0 1 42 62 1 63 39
 0 39 100 62 8 51 0 0 1499759782661858e-47 -1 1224646799147352e-31 1 0 -12246467
99147352e-31 1224646799147352e-31 1224646799147352e-31 1 2.11650448482936 2.4361
63825741845 2.464489089833435 1 3 ?11 63 5 0 1 54 64 1 65 51 0 0 12 54 187 66 67
 0 0 0 0 0 0 1e3 1e-8 63 68 42 1 0 1 1 69 70 71 72 0 0 73 74 75 0 0 0 0 0 0 100
 64 6 63 0 0 1 -1595945597898665e-31 -159594559789866e-30 1595945597898665e-31 1
224646799147352e-31 1 -159594559789866e-30 -1 1224646799147354e-31 1.23650448482
936 2.436163825741845 4.63677826698118 1 3 ?11 65 3 0 1 68 76 1 77 63 0 0 12 68
 188 78 79 0 0 0 0 0 0 1e3 1e-8 65 80 54 1 0 1 1 81 82 83 84 0 0 85 86 87 0 0 0
 0 0 0 100 76 4 65 0 0 1 1595945597898665e-31 1260090847065418e-35 1265521085321
236e-35 -376158192263132e-51 -1 -1595945597898665e-31 1 534903385912453e-37 2.11
650448482936 2.456163825741845 2.464489089833435 1 3 ?11 77 1 0 1 80 88 1 0 65 0
 0 12 80 523 89 90 0 0 0 0 0 0 1e3 1e-8 77 91 68 1 0 1 1 92 93 94 95 0 0 96 97 9
8 0 0 0 0 0 0 100 88 2 77 0 0 1 0 0 0 1 0 0 0 1 -.081235321368035 2.432036325741
845 2.05475612238356 1 1 ?81 1 89 523 5 80 0 0 0 0 99 70 90 0 4 T80 0 0 3 20 1 1
00 100 13 255 92 94 0 80 0 101 0 0 102 0 50 255 93 86 0 101 103 0 0 +0 .00254 0
 0 0 1 1 0 0 30 255 94 154 0 97 104 0 0 +0 9525e-7 0 1 0 0 29 255 95 413 0 98 10
5 0 1.043251090841946 9525e-7 -1034658470011606e-28 19 8 CCCCCCCA5 owner12 0 Z96
 28 0 80 102 0 106 V0 16 255 97 152 0 ?107 0 108 94 0 0 80 18 255 98 317 0 109 0
 110 95 ?80 17 255 109 0 111 112 113 98 114 115 0 107 +18 110 331 0 116 98 117 1
05 ?80 17 116 0 118 107 119 110 120 121 0 122 -18 117 315 0 120 110 123 124 ?80
 29 105 414 0 110 124 95 .54248268184421 9525e-7 -963816873533752e-26 29 124 415
 0 117 125 105 .54248268184421 0 -963754423488616e-26 29 125 416 0 123 0 124 1.0
43251090841946 0 -1034658470011606e-28 18 123 322 0 113 117 0 125 ?80 17 113 0 1
11 109 120 123 126 127 0 114 +15 255 111 445 0 112 128 129 17 120 0 111 113 112
 117 116 121 0 126 +17 126 0 130 131 131 117 113 127 0 119 -16 127 248 0 ?113 12
1 0 132 0 0 80 17 114 0 118 119 107 123 109 115 0 131 -15 118 244 0 114 101 0 17
 119 0 118 116 114 117 131 108 0 0 +17 107 0 118 114 116 98 122 97 0 133 +16 115
 254 0 ?109 134 121 135 0 0 80 17 131 0 130 126 126 123 119 108 0 0 -15 130 235
 0 126 136 0 16 108 229 0 ?119 97 137 104 0 0 80 16 137 161 0 ?112 108 134 138 0
 0 80 30 104 66 0 108 138 94 0 +0 0 0 -1 0 0 134 255 138 203 0 137 139 104 140 +
141 142 134 139 204 0 134 135 138 0 +143 144 141 255 140 145 140 140 138 136 255
 141 3 18 3 22 2 TTF1 146 147 148 135 255 142 2 0 45 255 54 146 1.38137560169164
6 9525e-7 .26395054730839 .648194145939943 9525e-7 -.2910370448282945 .273307055
681781 9525e-7 .491025767723701 .87811503269607 9525e-7 .756964700406276 .663687
631754202 9525e-7 1.474956646819704 1.51803378091287 9525e-7 1.382918422603072 .
985024199673294 9525e-7 1.563118804647875 .841433313280196 9525e-7 1.98231871934
2895 1.137370090815212 9525e-7 2.56770376491848 1.643589002046385 9525e-7 2.7195
85877184945 2.078119940881855 9525e-7 2.69539672191378 2.25364176140031 9525e-7
 2.38217815557764 2.342359964667245 9525e-7 1.85649370679559 2.33356561291231 95
25e-7 1.20729488993138 2.37435366544493 9525e-7 .2186699206636205 1.381375601691
646 9525e-7 .26395054730839 .648194145939943 9525e-7 -.2910370448282945 .2733070
55681781 9525e-7 .491025767723701 127 255 22 147 1 1 1 1 1 1 1 1 1 1 1 1 1 1 1 1
 1 1 1 1 1 1 128 255 22 148 -.289076782036166 -.180775054413678 -.11055706034333
34 0 .02129245339050465 .1173989780556482 .1935248679057445 .246711358327115 .28
52621380063875 .327734487855599 .420663290816228 .498327395906538 .5423462579559
14 .556119524786508 .636060064212475 .710923217963834 .819224945586322 .88944293
9656667 1 1.021292453390504 1.117398978055648 1.193524867905744 67 255 145 198 0
 128 149 103 0 +138 0 1 0 .335305562413864 14 255 128 181 150 ?151 152 111 92 14
5 +0 0 151 152 106 50 149 199 0 152 153 145 0 +1.779650964399835 9525e-7 2.70011
316057976 0 -1 0 0 0 -1 50 103 65 0 136 145 93 0 +0 0 0 0 1 0 0 0 1 14 136 237 1
54 ?152 101 130 92 103 -0 0 152 101 106 81 1 154 519 155 136 156 0 157 158 159 1
4 152 178 158 ?128 136 160 92 149 +0 0 128 136 106 14 101 245 157 ?136 0 118 92
 93 -0 0 136 0 106 13 106 29 0 0 0 0 0 0 96 101 81 1 157 518 155 101 161 0 0 154
 162 80 255 1 155 0 163 8001 0 0 0 0 3 5 0 0 0 FFFFTFTFFFFFFF2 81 1 161 514 164
 101 0 157 165 166 167 83 255 3 162 .796078431372549 .823529411764706 .937254901
960784 80 1 164 168 169 9000 1 1 1 1 1 1 1 1 0 FFFFTFTFFFFFFF1 81 1 165 512 164
 152 0 158 156 161 170 81 1 166 516 164 151 0 171 161 0 172 82 255 1 167 7161776
61 14 151 193 171 ?0 128 173 92 153 -0 0 0 128 106 81 1 171 522 155 151 166 0 15
0 0 174 82 1 172 674627836 81 1 150 521 155 128 175 0 158 171 176 83 3 174 .7960
78431372549 .823529411764706 .937254901960784 81 1 175 507 164 128 0 150 0 156 1
77 81 1 158 520 155 152 165 0 154 150 178 83 3 176 .796078431372549 .82352941176
4706 .937254901960784 83 3 178 .796078431372549 .823529411764706 .93725490196078
4 81 1 156 510 164 136 0 154 175 165 179 82 1 177 679739645 82 1 179 715391229 1
5 173 195 0 180 151 0 50 153 200 0 151 0 149 0 +1.779650964399835 .0041275 2.700
11316057976 0 -1 0 0 0 -1 17 180 0 173 180 180 0 181 134 0 0 +17 181 0 129 181 1
81 0 180 134 0 0 -16 134 171 0 ?180 137 115 139 0 0 80 15 129 184 0 181 128 0 82
 1 170 681378045 79 255 14 169 SWEntUnchanged79 15 163 SDL/TYSA_COLOUR15 160 180
 0 122 152 0 17 122 0 160 133 133 110 107 97 0 112 -17 133 0 160 122 122 98 112
 137 0 0 -17 112 0 111 120 109 110 133 137 0 0 +83 3 159 .796078431372549 .82352
9411764706 .937254901960784 30 135 388 0 115 182 139 0 +1.04325109084222 0 -1457
167719820518e-31 0 1 0 136 143 3 18 3 22 2 TTF1 183 184 185 135 144 2 0 45 54 18
3 1.381375601691646 .0041275 .26395054730839 .648194145939943 .0041275 -.2910370
448282945 .273307055681781 .0041275 .491025767723701 .87811503269607 .0041275 .7
56964700406276 .663687631754202 .0041275 1.474956646819704 1.51803378091287 .004
1275 1.382918422603072 .985024199673294 .0041275 1.563118804647875 .841433313280
196 .0041275 1.982318719342895 1.137370090815212 .0041275 2.56770376491848 1.643
589002046385 .0041275 2.719585877184945 2.078119940881855 .0041275 2.69539672191
378 2.25364176140031 .0041275 2.38217815557764 2.342359964667245 .0041275 1.8564
9370679559 2.33356561291231 .0041275 1.20729488993138 2.37435366544493 .0041275
 .2186699206636205 1.381375601691646 .0041275 .26395054730839 .648194145939943 .
0041275 -.2910370448282945 .273307055681781 .0041275 .491025767723701 127 22 184
 1 1 1 1 1 1 1 1 1 1 1 1 1 1 1 1 1 1 1 1 1 1 128 22 185 -.289076782036166 -.1807
75054413678 -.1105570603433334 0 .02129245339050465 .1173989780556482 .193524867
9057445 .246711358327115 .2852621380063875 .327734487855599 .420663290816228 .49
8327395906538 .542346257955914 .556119524786508 .636060064212475 .71092321796383
4 .819224945586322 .889442939656667 1 1.021292453390504 1.117398978055648 1.1935
24867905744 30 182 389 0 121 132 135 0 -.542482681833572 0 -178676518025611e-30
 0 1 0 16 121 255 0 ?120 115 127 182 0 0 80 134 132 408 0 127 0 182 0 +186 187 1
36 186 3 18 3 22 2 TTF1 188 189 190 135 187 2 0 45 54 188 1.381375601691646 0 .2
6395054730839 .648194145939943 0 -.2910370448282945 .273307055681781 0 .49102576
7723701 .87811503269607 0 .756964700406276 .663687631754202 0 1.474956646819704
 1.51803378091287 0 1.382918422603072 .985024199673294 0 1.563118804647875 .8414
33313280196 0 1.982318719342895 1.137370090815212 0 2.56770376491848 1.643589002
046385 0 2.719585877184945 2.078119940881855 0 2.69539672191378 2.25364176140031
 0 2.38217815557764 2.342359964667245 0 1.85649370679559 2.33356561291231 0 1.20
729488993138 2.37435366544493 0 .2186699206636205 1.381375601691646 0 .263950547
30839 .648194145939943 0 -.2910370448282945 .273307055681781 0 .491025767723701
 127 22 189 1 1 1 1 1 1 1 1 1 1 1 1 1 1 1 1 1 1 1 1 1 1 128 22 190 -.28907678203
6166 -.180775054413678 -.1105570603433334 0 .02129245339050465 .1173989780556482
 .1935248679057445 .246711358327115 .2852621380063875 .327734487855599 .42066329
0816228 .498327395906538 .542346257955914 .556119524786508 .636060064212475 .710
923217963834 .819224945586322 .889442939656667 1 1.021292453390504 1.11739897805
5648 1.193524867905744 19 102 95 0 80 0 96 92 S0 74 4 CI16 index_map_offset0 0 1
 dCCZ20 100 3 0 0 166 171 89 0 0 0 0 0 0 0 0 0 0 0 0 0 0 0 0 0 80 1 5 191 192 80
17 0 0 0 0 0 0 0 0 0 TTTTTTTTTTTTTF3 84 255 10 99 wing_photo79 13 192 SDL/TYSA_N
AME81 1 78 188 5 68 0 0 0 0 193 70 79 0 4 T68 0 0 3 20 1 194 194 13 81 94 0 68 0
 195 0 0 196 0 50 82 89 0 195 197 0 0 +0 2 0 1 0 -1224646799147352e-31 -12246467
99147352e-31 0 -1 30 83 93 0 86 198 0 0 +2449293598294705e-33 2 .02 0 -1 0 29 84
 70 0 199 200 0 0 0 0 19 85 28 0 68 196 0 201 V0 16 86 77 0 ?202 0 203 83 0 0 68
 18 87 25 0 204 0 205 206 ?68 17 204 0 207 208 209 87 210 211 0 212 +18 205 22 0
 209 87 213 214 ?68 29 206 27 0 87 214 215 0 2 0 29 214 24 0 205 216 206 .02 2 0
 29 215 73 0 217 206 218 2449293598294705e-33 0 .02 18 217 64 0 219 220 0 215 ?6
8 29 218 72 0 220 215 200 .02 0 .02 18 220 63 0 221 222 217 218 ?68 29 200 71 0
 222 218 84 .02 0 0 18 222 62 0 223 199 220 200 ?68 17 223 0 224 225 226 222 227
 228 0 229 +18 199 61 0 230 231 222 84 ?68 17 230 0 232 212 229 199 233 234 0 23
5 +18 231 16 0 236 213 199 237 ?68 17 236 0 238 202 239 231 240 241 0 208 -18 21
3 19 0 240 205 231 216 ?68 29 237 18 0 231 0 216 2449293598294705e-33 2 .02 29 2
16 21 0 213 237 214 .02 2 .02 17 240 0 207 209 208 213 236 241 0 239 +15 207 3 0
 208 242 0 17 209 0 207 204 240 205 243 244 0 225 +17 208 0 207 240 204 231 245
 246 0 247 +16 241 7 0 ?240 244 246 248 0 0 68 17 239 0 238 236 221 213 226 203
 0 243 -15 238 82 0 221 249 0 17 221 0 238 239 202 220 219 250 0 226 +17 226 0 2
24 223 243 220 239 203 0 227 +16 203 76 0 ?226 86 251 198 0 0 68 17 243 0 224 22
6 225 213 209 244 0 0 -15 224 80 0 223 252 0 17 225 0 224 243 223 205 229 251 0
 210 -16 244 10 0 ?209 211 241 253 0 0 68 16 211 13 0 ?204 254 244 255 0 0 68 30
 253 11 0 244 248 255 0 +.02 2 0 -1734723475976805e-31 0 -1 30 248 8 0 241 256 2
53 0 +2449293598294705e-33 2 .02 1 0 0 30 255 14 0 211 253 257 0 +0 2 0 -1 0 0 3
0 257 69 0 258 255 259 0 +0 0 0 1224646799147352e-31 0 1 16 258 57 0 ?260 250 0
 257 0 0 68 30 259 68 0 250 257 261 0 +2449293598294705e-33 0 .02 1 0 0 16 250 5
3 0 ?221 228 258 259 0 0 68 30 261 67 0 228 259 262 0 +.02 0 0 -1734723475976805
e-31 0 -1 16 228 49 0 ?223 234 250 261 0 0 68 30 262 66 0 234 261 263 0 +0 0 0 -
1 0 0 16 234 45 0 ?230 246 228 262 0 0 68 30 263 90 0 254 262 264 0 +0 2 0 0 -1
 0 16 254 74 0 ?235 251 211 263 0 0 68 30 264 91 0 251 263 198 0 +.02 2 0 0 -1 0
 16 251 75 0 ?229 203 254 264 0 0 68 30 198 92 0 203 264 83 0 +.02 2 .02 0 -1 0
 17 229 0 232 230 210 222 225 251 0 233 +15 232 78 0 230 265 0 17 210 0 232 229
 212 205 204 211 0 0 -17 233 0 266 227 267 222 230 234 0 0 -15 266 44 0 267 268
 0 17 227 0 266 219 233 220 223 228 0 0 -17 267 0 266 233 219 199 260 258 0 0 -1
7 219 0 266 267 227 217 221 250 0 202 -17 260 0 269 247 235 217 267 258 0 0 +15
 269 84 0 260 195 0 17 247 0 269 245 260 231 202 86 0 0 -17 235 0 269 260 245 19
9 212 254 0 267 +17 245 0 269 235 247 87 208 246 0 0 -17 212 0 232 210 230 87 23
5 254 0 245 -16 246 4 0 ?208 241 234 256 0 0 68 30 256 5 0 246 0 248 0 +0 2 0 12
24646799147352e-31 0 1 17 202 0 238 221 236 217 247 86 0 260 +14 195 85 270 ?249
 0 269 81 82 -0 0 249 0 201 81 1 270 182 155 195 271 0 0 272 273 14 249 83 272 ?
252 195 238 81 197 -0 0 252 195 201 13 201 29 0 0 0 0 0 0 85 195 81 1 272 183 15
5 249 274 0 270 275 276 14 252 81 275 ?265 249 224 81 277 -0 0 265 249 201 50 19
7 88 0 249 277 82 0 +2449293598294705e-33 2 .02 0 0 -1 -1 0 0 50 277 87 0 252 27
8 197 0 +.02 2 0 -1 0 1734723475976805e-31 1734723475976805e-31 0 1 50 278 86 0
 265 279 277 0 +0 2 0 0 0 1 1 0 0 14 265 79 280 ?242 252 232 81 278 -0 0 242 252
 201 50 279 65 0 268 281 278 0 +0 0 0 0 1 0 0 0 1 14 268 43 282 ?0 242 266 81 27
9 -0 0 0 242 201 50 281 2 0 242 0 279 0 +0 2 0 0 1 0 0 0 1 14 242 1 283 ?268 265
 207 81 281 +0 0 268 265 201 81 1 283 186 155 242 284 0 280 282 285 81 1 284 180
 164 242 0 283 286 0 287 81 1 280 185 155 265 288 0 275 283 289 81 1 282 187 155
 268 286 0 283 0 290 83 3 285 .792156862745098 .819607843137255 .933333333333333
 81 1 286 178 164 268 0 282 288 284 291 83 3 290 .792156862745098 .8196078431372
55 .933333333333333 81 1 288 176 164 265 0 280 292 286 293 82 1 291 1417347176 8
1 1 292 174 164 252 0 275 274 288 294 82 1 293 1418264680 81 1 275 184 155 252 2
92 0 272 280 295 81 1 274 172 164 249 0 272 271 292 296 82 1 294 1418526824 81 1
 271 170 164 195 0 270 0 274 297 82 1 296 1418788968 82 1 297 1419051112 83 3 29
5 .792156862745098 .819607843137255 .933333333333333 83 3 289 .792156862745098 .
819607843137255 .933333333333333 82 1 287 1411711080 83 3 276 .792156862745098 .
819607843137255 .933333333333333 83 3 273 .792156862745098 .819607843137255 .933
333333333333 19 196 95 0 68 0 85 81 S0 74 20 194 3 0 0 284 282 78 0 0 0 0 0 0 0
 0 0 0 0 0 0 0 0 0 0 84 15 193 wing_inner_202081 1 66 187 5 54 0 0 0 0 298 70 67
 0 4 T54 0 0 3 20 1 299 299 13 69 94 0 54 0 300 0 0 301 0 50 70 89 0 300 302 0 0
 +0 2.465 0 1 0 -1224646799147352e-31 -1224646799147352e-31 0 -1 30 71 93 0 74 3
03 0 0 +2449293598294705e-33 2.465 .02 0 -1 0 29 72 70 0 304 305 0 0 0 0 19 73 2
8 0 54 301 0 306 V0 16 74 77 0 ?307 0 308 71 0 0 54 18 75 25 0 309 0 310 311 ?54
 17 309 0 312 313 314 75 315 316 0 317 +18 310 22 0 314 75 318 319 ?54 29 311 27
 0 75 319 320 0 2.465 0 29 319 24 0 310 321 311 .02 2.465 0 29 320 73 0 322 311
 323 2449293598294705e-33 0 .02 18 322 64 0 324 325 0 320 ?54 29 323 72 0 325 32
0 305 .02 0 .02 18 325 63 0 326 327 322 323 ?54 29 305 71 0 327 323 72 .02 0 0 1
8 327 62 0 328 304 325 305 ?54 17 328 0 329 330 331 327 332 333 0 334 +18 304 61
 0 335 336 327 72 ?54 17 335 0 337 317 334 304 338 339 0 340 +18 336 16 0 341 31
8 304 342 ?54 17 341 0 343 307 344 336 345 346 0 313 -18 318 19 0 345 310 336 32
1 ?54 29 342 18 0 336 0 321 2449293598294705e-33 2.465 .02 29 321 21 0 318 342 3
19 .02 2.465 .02 17 345 0 312 314 313 318 341 346 0 344 +15 312 3 0 313 347 0 17
 314 0 312 309 345 310 348 349 0 330 +17 313 0 312 345 309 336 350 351 0 352 +16
 346 7 0 ?345 349 351 353 0 0 54 17 344 0 343 341 326 318 331 308 0 348 -15 343
 82 0 326 354 0 17 326 0 343 344 307 325 324 355 0 331 +17 331 0 329 328 348 325
 344 308 0 332 +16 308 76 0 ?331 74 356 303 0 0 54 17 348 0 329 331 330 318 314
 349 0 0 -15 329 80 0 328 357 0 17 330 0 329 348 328 310 334 356 0 315 -16 349 1
0 0 ?314 316 346 358 0 0 54 16 316 13 0 ?309 359 349 360 0 0 54 30 358 11 0 349
 353 360 0 +.02 2.465 0 -1734723475976805e-31 0 -1 30 353 8 0 346 361 358 0 +244
9293598294705e-33 2.465 .02 1 0 0 30 360 14 0 316 358 362 0 +0 2.465 0 -1 0 0 30
 362 69 0 363 360 364 0 +0 0 0 1224646799147352e-31 0 1 16 363 57 0 ?365 355 0 3
62 0 0 54 30 364 68 0 355 362 366 0 +2449293598294705e-33 0 .02 1 0 0 16 355 53
 0 ?326 333 363 364 0 0 54 30 366 67 0 333 364 367 0 +.02 0 0 -1734723475976805e
-31 0 -1 16 333 49 0 ?328 339 355 366 0 0 54 30 367 66 0 339 366 368 0 +0 0 0 -1
 0 0 16 339 45 0 ?335 351 333 367 0 0 54 30 368 90 0 359 367 369 0 +0 2.465 0 0
 -1 0 16 359 74 0 ?340 356 316 368 0 0 54 30 369 91 0 356 368 303 0 +.02 2.465 0
 0 -1 0 16 356 75 0 ?334 308 359 369 0 0 54 30 303 92 0 308 369 71 0 +.02 2.465
 .02 0 -1 0 17 334 0 337 335 315 327 330 356 0 338 +15 337 78 0 335 370 0 17 315
 0 337 334 317 310 309 316 0 0 -17 338 0 371 332 372 327 335 339 0 0 -15 371 44
 0 372 373 0 17 332 0 371 324 338 325 328 333 0 0 -17 372 0 371 338 324 304 365
 363 0 0 -17 324 0 371 372 332 322 326 355 0 307 -17 365 0 374 352 340 322 372 3
63 0 0 +15 374 84 0 365 300 0 17 352 0 374 350 365 336 307 74 0 0 -17 340 0 374
 365 350 304 317 359 0 372 +17 350 0 374 340 352 75 313 351 0 0 -17 317 0 337 31
5 335 75 340 359 0 350 -16 351 4 0 ?313 346 339 361 0 0 54 30 361 5 0 351 0 353
 0 +0 2.465 0 1224646799147352e-31 0 1 17 307 0 343 326 341 322 352 74 0 365 +14
 300 85 375 ?354 0 374 69 70 -0 0 354 0 306 81 1 375 181 155 300 376 0 0 377 378
 14 354 83 377 ?357 300 343 69 302 -0 0 357 300 306 13 306 29 0 0 0 0 0 0 73 300
 81 1 377 182 155 354 379 0 375 380 381 14 357 81 380 ?370 354 329 69 382 -0 0 3
70 354 306 50 302 88 0 354 382 70 0 +2449293598294705e-33 2.465 .02 0 0 -1 -1 0
 0 50 382 87 0 357 383 302 0 +.02 2.465 0 -1 0 1734723475976805e-31 173472347597
6805e-31 0 1 50 383 86 0 370 384 382 0 +0 2.465 0 0 0 1 1 0 0 14 370 79 385 ?347
 357 337 69 383 -0 0 347 357 306 50 384 65 0 373 386 383 0 +0 0 0 0 1 0 0 0 1 14
 373 43 387 ?0 347 371 69 384 -0 0 0 347 306 50 386 2 0 347 0 384 0 +0 2.465 0 0
 1 0 0 0 1 14 347 1 388 ?373 370 312 69 386 +0 0 373 370 306 81 1 388 185 155 34
7 389 0 385 387 390 81 1 389 179 164 347 0 388 391 0 392 81 1 385 184 155 370 39
3 0 380 388 394 81 1 387 186 155 373 391 0 388 0 395 83 3 390 .792156862745098 .
819607843137255 .933333333333333 81 1 391 177 164 373 0 387 393 389 396 83 3 395
 .792156862745098 .819607843137255 .933333333333333 81 1 393 175 164 370 0 385 3
97 391 398 82 1 396 -727908227 81 1 397 173 164 357 0 380 379 393 399 82 1 398 -
726990723 81 1 380 183 155 357 397 0 377 385 400 81 1 379 171 164 354 0 377 376
 397 401 82 1 399 -726728579 81 1 376 169 164 300 0 375 0 379 402 82 1 401 -7264
66435 82 1 402 -726204291 83 3 400 .792156862745098 .819607843137255 .9333333333
33333 83 3 394 .792156862745098 .819607843137255 .933333333333333 82 1 392 -7335
44323 83 3 381 .792156862745098 .819607843137255 .933333333333333 83 3 378 .7921
56862745098 .819607843137255 .933333333333333 19 301 95 0 54 0 73 69 S0 74 20 29
9 3 0 0 389 387 66 0 0 0 0 0 0 0 0 0 0 0 0 0 0 0 0 0 84 27 298 wing_at_split_ver
tical_202081 1 52 173 5 42 0 0 0 0 403 70 53 0 4 T42 0 0 3 20 1 404 404 13 55 94
 0 42 0 405 0 0 406 0 50 56 89 0 405 407 0 0 +0 .86 0 1 0 -1224646799147352e-31
 -1224646799147352e-31 0 -1 30 57 93 0 60 408 0 0 +2449293598294705e-33 .86 .02
 0 -1 0 29 58 70 0 409 410 0 0 0 0 19 59 28 0 42 406 0 411 V0 16 60 77 0 ?412 0
 413 57 0 0 42 18 61 25 0 414 0 415 416 ?42 17 414 0 417 418 419 61 420 421 0 42
2 +18 415 22 0 419 61 423 424 ?42 29 416 27 0 61 424 425 0 .86 0 29 424 24 0 415
 426 416 .02 .86 0 29 425 73 0 427 416 428 2449293598294705e-33 0 .02 18 427 64
 0 429 430 0 425 ?42 29 428 72 0 430 425 410 .02 0 .02 18 430 63 0 431 432 427 4
28 ?42 29 410 71 0 432 428 58 .02 0 0 18 432 62 0 433 409 430 410 ?42 17 433 0 4
34 435 436 432 437 438 0 439 +18 409 61 0 440 441 432 58 ?42 17 440 0 442 422 43
9 409 443 444 0 445 +18 441 16 0 446 423 409 447 ?42 17 446 0 448 412 449 441 45
0 451 0 418 -18 423 19 0 450 415 441 426 ?42 29 447 18 0 441 0 426 2449293598294
705e-33 .86 .02 29 426 21 0 423 447 424 .02 .86 .02 17 450 0 417 419 418 423 446
 451 0 449 +15 417 3 0 418 452 0 17 419 0 417 414 450 415 453 454 0 435 +17 418
 0 417 450 414 441 455 456 0 457 +16 451 7 0 ?450 454 456 458 0 0 42 17 449 0 44
8 446 431 423 436 413 0 453 -15 448 82 0 431 459 0 17 431 0 448 449 412 430 429
 460 0 436 +17 436 0 434 433 453 430 449 413 0 437 +16 413 76 0 ?436 60 461 408
 0 0 42 17 453 0 434 436 435 423 419 454 0 0 -15 434 80 0 433 462 0 17 435 0 434
 453 433 415 439 461 0 420 -16 454 10 0 ?419 421 451 463 0 0 42 16 421 13 0 ?414
 464 454 465 0 0 42 30 463 11 0 454 458 465 0 +.02 .86 0 -1734723475976805e-31 0
 -1 30 458 8 0 451 466 463 0 +2449293598294705e-33 .86 .02 1 0 0 30 465 14 0 421
 463 467 0 +0 .86 0 -1 0 0 30 467 69 0 468 465 469 0 +0 0 0 1224646799147352e-31
 0 1 16 468 57 0 ?470 460 0 467 0 0 42 30 469 68 0 460 467 471 0 +24492935982947
05e-33 0 .02 1 0 0 16 460 53 0 ?431 438 468 469 0 0 42 30 471 67 0 438 469 472 0
 +.02 0 0 -1734723475976805e-31 0 -1 16 438 49 0 ?433 444 460 471 0 0 42 30 472
 66 0 444 471 473 0 +0 0 0 -1 0 0 16 444 45 0 ?440 456 438 472 0 0 42 30 473 90
 0 464 472 474 0 +0 .86 0 0 -1 0 16 464 74 0 ?445 461 421 473 0 0 42 30 474 91 0
 461 473 408 0 +.02 .86 0 0 -1 0 16 461 75 0 ?439 413 464 474 0 0 42 30 408 92 0
 413 474 57 0 +.02 .86 .02 0 -1 0 17 439 0 442 440 420 432 435 461 0 443 +15 442
 78 0 440 475 0 17 420 0 442 439 422 415 414 421 0 0 -17 443 0 476 437 477 432 4
40 444 0 0 -15 476 44 0 477 478 0 17 437 0 476 429 443 430 433 438 0 0 -17 477 0
 476 443 429 409 470 468 0 0 -17 429 0 476 477 437 427 431 460 0 412 -17 470 0 4
79 457 445 427 477 468 0 0 +15 479 84 0 470 405 0 17 457 0 479 455 470 441 412 6
0 0 0 -17 445 0 479 470 455 409 422 464 0 477 +17 455 0 479 445 457 61 418 456 0
 0 -17 422 0 442 420 440 61 445 464 0 455 -16 456 4 0 ?418 451 444 466 0 0 42 30
 466 5 0 456 0 458 0 +0 .86 0 1224646799147352e-31 0 1 17 412 0 448 431 446 427
 457 60 0 470 +14 405 85 480 ?459 0 479 55 56 -0 0 459 0 411 81 1 480 167 155 40
5 481 0 0 482 483 14 459 83 482 ?462 405 448 55 407 -0 0 462 405 411 13 411 29 0
 0 0 0 0 0 59 405 81 1 482 168 155 459 484 0 480 485 486 14 462 81 485 ?475 459
 434 55 487 -0 0 475 459 411 50 407 88 0 459 487 56 0 +2449293598294705e-33 .86
 .02 0 0 -1 -1 0 0 50 487 87 0 462 488 407 0 +.02 .86 0 -1 0 1734723475976805e-3
1 1734723475976805e-31 0 1 50 488 86 0 475 489 487 0 +0 .86 0 0 0 1 1 0 0 14 475
 79 490 ?452 462 442 55 488 -0 0 452 462 411 50 489 65 0 478 491 488 0 +0 0 0 0
 1 0 0 0 1 14 478 43 492 ?0 452 476 55 489 -0 0 0 452 411 50 491 2 0 452 0 489 0
 +0 .86 0 0 1 0 0 0 1 14 452 1 493 ?478 475 417 55 491 +0 0 478 475 411 81 1 493
 171 155 452 494 0 490 492 495 81 1 494 165 164 452 0 493 496 0 497 81 1 490 170
 155 475 498 0 485 493 499 81 1 492 172 155 478 496 0 493 0 500 83 3 495 .792156
862745098 .819607843137255 .933333333333333 81 1 496 163 164 478 0 492 498 494 5
01 83 3 500 .792156862745098 .819607843137255 .933333333333333 81 1 498 161 164
 475 0 490 502 496 503 82 1 501 633274502 81 1 502 159 164 462 0 485 484 498 504
 82 1 503 634192006 81 1 485 169 155 462 502 0 482 490 505 81 1 484 157 164 459
 0 482 481 502 506 82 1 504 634454150 81 1 481 155 164 405 0 480 0 484 507 82 1
 506 634716294 82 1 507 634978438 83 3 505 .792156862745098 .819607843137255 .93
3333333333333 83 3 499 .792156862745098 .819607843137255 .933333333333333 82 1 4
97 627638406 83 3 486 .792156862745098 .819607843137255 .933333333333333 83 3 48
3 .792156862745098 .819607843137255 .933333333333333 19 406 95 0 42 0 59 55 S0 7
4 20 404 3 0 0 494 492 52 0 0 0 0 0 0 0 0 0 0 0 0 0 0 0 0 0 84 19 403 wing_inner
_top_202081 1 40 173 5 24 0 0 0 0 508 70 41 0 4 T24 0 0 3 20 1 509 509 13 43 94
 0 24 0 510 0 0 511 0 50 44 89 0 510 512 0 0 +0 1.96 0 1 0 -1224646799147352e-31
 -1224646799147352e-31 0 -1 30 45 93 0 48 513 0 0 +2449293598294705e-33 1.96 .02
 0 -1 0 29 46 70 0 514 515 0 0 0 0 19 47 28 0 24 511 0 516 V0 16 48 77 0 ?517 0
 518 45 0 0 24 18 49 25 0 519 0 520 521 ?24 17 519 0 522 523 524 49 525 526 0 52
7 +18 520 22 0 524 49 528 529 ?24 29 521 27 0 49 529 530 0 1.96 0 29 529 24 0 52
0 531 521 .02 1.96 0 29 530 73 0 532 521 533 2449293598294705e-33 0 .02 18 532 6
4 0 534 535 0 530 ?24 29 533 72 0 535 530 515 .02 0 .02 18 535 63 0 536 537 532
 533 ?24 29 515 71 0 537 533 46 .02 0 0 18 537 62 0 538 514 535 515 ?24 17 538 0
 539 540 541 537 542 543 0 544 +18 514 61 0 545 546 537 46 ?24 17 545 0 547 527
 544 514 548 549 0 550 +18 546 16 0 551 528 514 552 ?24 17 551 0 553 517 554 546
 555 556 0 523 -18 528 19 0 555 520 546 531 ?24 29 552 18 0 546 0 531 2449293598
294705e-33 1.96 .02 29 531 21 0 528 552 529 .02 1.96 .02 17 555 0 522 524 523 52
8 551 556 0 554 +15 522 3 0 523 557 0 17 524 0 522 519 555 520 558 559 0 540 +17
 523 0 522 555 519 546 560 561 0 562 +16 556 7 0 ?555 559 561 563 0 0 24 17 554
 0 553 551 536 528 541 518 0 558 -15 553 82 0 536 564 0 17 536 0 553 554 517 535
 534 565 0 541 +17 541 0 539 538 558 535 554 518 0 542 +16 518 76 0 ?541 48 566
 513 0 0 24 17 558 0 539 541 540 528 524 559 0 0 -15 539 80 0 538 567 0 17 540 0
 539 558 538 520 544 566 0 525 -16 559 10 0 ?524 526 556 568 0 0 24 16 526 13 0
 ?519 569 559 570 0 0 24 30 568 11 0 559 563 570 0 +.02 1.96 0 -1734723475976805
e-31 0 -1 30 563 8 0 556 571 568 0 +2449293598294705e-33 1.96 .02 1 0 0 30 570 1
4 0 526 568 572 0 +0 1.96 0 -1 0 0 30 572 69 0 573 570 574 0 +0 0 0 122464679914
7352e-31 0 1 16 573 57 0 ?575 565 0 572 0 0 24 30 574 68 0 565 572 576 0 +244929
3598294705e-33 0 .02 1 0 0 16 565 53 0 ?536 543 573 574 0 0 24 30 576 67 0 543 5
74 577 0 +.02 0 0 -1734723475976805e-31 0 -1 16 543 49 0 ?538 549 565 576 0 0 24
 30 577 66 0 549 576 578 0 +0 0 0 -1 0 0 16 549 45 0 ?545 561 543 577 0 0 24 30
 578 90 0 569 577 579 0 +0 1.96 0 0 -1 0 16 569 74 0 ?550 566 526 578 0 0 24 30
 579 91 0 566 578 513 0 +.02 1.96 0 0 -1 0 16 566 75 0 ?544 518 569 579 0 0 24 3
0 513 92 0 518 579 45 0 +.02 1.96 .02 0 -1 0 17 544 0 547 545 525 537 540 566 0
 548 +15 547 78 0 545 580 0 17 525 0 547 544 527 520 519 526 0 0 -17 548 0 581 5
42 582 537 545 549 0 0 -15 581 44 0 582 583 0 17 542 0 581 534 548 535 538 543 0
 0 -17 582 0 581 548 534 514 575 573 0 0 -17 534 0 581 582 542 532 536 565 0 517
 -17 575 0 584 562 550 532 582 573 0 0 +15 584 84 0 575 510 0 17 562 0 584 560 5
75 546 517 48 0 0 -17 550 0 584 575 560 514 527 569 0 582 +17 560 0 584 550 562
 49 523 561 0 0 -17 527 0 547 525 545 49 550 569 0 560 -16 561 4 0 ?523 556 549
 571 0 0 24 30 571 5 0 561 0 563 0 +0 1.96 0 1224646799147352e-31 0 1 17 517 0 5
53 536 551 532 562 48 0 575 +14 510 85 585 ?564 0 584 43 44 -0 0 564 0 516 81 1
 585 167 155 510 586 0 0 587 588 14 564 83 587 ?567 510 553 43 512 -0 0 567 510
 516 13 516 29 0 0 0 0 0 0 47 510 81 1 587 168 155 564 589 0 585 590 591 14 567
 81 590 ?580 564 539 43 592 -0 0 580 564 516 50 512 88 0 564 592 44 0 +244929359
8294705e-33 1.96 .02 0 0 -1 -1 0 0 50 592 87 0 567 593 512 0 +.02 1.96 0 -1 0 17
34723475976805e-31 1734723475976805e-31 0 1 50 593 86 0 580 594 592 0 +0 1.96 0
 0 0 1 1 0 0 14 580 79 595 ?557 567 547 43 593 -0 0 557 567 516 50 594 65 0 583
 596 593 0 +0 0 0 0 1 0 0 0 1 14 583 43 597 ?0 557 581 43 594 -0 0 0 557 516 50
 596 2 0 557 0 594 0 +0 1.96 0 0 1 0 0 0 1 14 557 1 598 ?583 580 522 43 596 +0 0
 583 580 516 81 1 598 171 155 557 599 0 595 597 600 81 1 599 165 164 557 0 598 6
01 0 602 81 1 595 170 155 580 603 0 590 598 604 81 1 597 172 155 583 601 0 598 0
 605 83 3 600 .792156862745098 .819607843137255 .933333333333333 81 1 601 163 16
4 583 0 597 603 599 606 83 3 605 .792156862745098 .819607843137255 .933333333333
333 81 1 603 161 164 580 0 595 607 601 608 82 1 606 1749549163 81 1 607 159 164
 567 0 590 589 603 609 82 1 608 1750466667 81 1 590 169 155 567 607 0 587 595 61
0 81 1 589 157 164 564 0 587 586 607 611 82 1 609 1750728811 81 1 586 155 164 51
0 0 585 0 589 612 82 1 611 1750990955 82 1 612 1751253099 83 3 610 .792156862745
098 .819607843137255 .933333333333333 83 3 604 .792156862745098 .819607843137255
 .933333333333333 82 1 602 1743913067 83 3 591 .792156862745098 .819607843137255
 .933333333333333 83 3 588 .792156862745098 .819607843137255 .933333333333333 19
 511 95 0 24 0 47 43 S0 74 20 509 3 0 0 599 597 40 0 0 0 0 0 0 0 0 0 0 0 0 0 0 0
 0 0 84 25 508 wing_inner_vertical_brace81 1 22 179 5 12 0 0 0 0 613 70 23 0 4 T
12 0 0 3 20 1 614 614 13 25 94 0 12 0 615 0 0 616 0 50 26 89 0 615 617 0 0 +0 .4
2 0 1 0 -1224646799147352e-31 -1224646799147352e-31 0 -1 30 27 93 0 30 618 0 0 +
2449293598294705e-33 .42 .02 0 -1 0 29 28 70 0 619 620 0 0 0 0 19 29 28 0 12 616
 0 621 V0 16 30 77 0 ?622 0 623 27 0 0 12 18 31 25 0 624 0 625 626 ?12 17 624 0
 627 628 629 31 630 631 0 632 +18 625 22 0 629 31 633 634 ?12 29 626 27 0 31 634
 635 0 .42 0 29 634 24 0 625 636 626 .02 .42 0 29 635 73 0 637 626 638 244929359
8294705e-33 0 .02 18 637 64 0 639 640 0 635 ?12 29 638 72 0 640 635 620 .02 0 .0
2 18 640 63 0 641 642 637 638 ?12 29 620 71 0 642 638 28 .02 0 0 18 642 62 0 643
 619 640 620 ?12 17 643 0 644 645 646 642 647 648 0 649 +18 619 61 0 650 651 642
 28 ?12 17 650 0 652 632 649 619 653 654 0 655 +18 651 16 0 656 633 619 657 ?12
 17 656 0 658 622 659 651 660 661 0 628 -18 633 19 0 660 625 651 636 ?12 29 657
 18 0 651 0 636 2449293598294705e-33 .42 .02 29 636 21 0 633 657 634 .02 .42 .02
 17 660 0 627 629 628 633 656 661 0 659 +15 627 3 0 628 662 0 17 629 0 627 624 6
60 625 663 664 0 645 +17 628 0 627 660 624 651 665 666 0 667 +16 661 7 0 ?660 66
4 666 668 0 0 12 17 659 0 658 656 641 633 646 623 0 663 -15 658 82 0 641 669 0 1
7 641 0 658 659 622 640 639 670 0 646 +17 646 0 644 643 663 640 659 623 0 647 +1
6 623 76 0 ?646 30 671 618 0 0 12 17 663 0 644 646 645 633 629 664 0 0 -15 644 8
0 0 643 672 0 17 645 0 644 663 643 625 649 671 0 630 -16 664 10 0 ?629 631 661 6
73 0 0 12 16 631 13 0 ?624 674 664 675 0 0 12 30 673 11 0 664 668 675 0 +.02 .42
 0 -1734723475976805e-31 0 -1 30 668 8 0 661 676 673 0 +2449293598294705e-33 .42
 .02 1 0 0 30 675 14 0 631 673 677 0 +0 .42 0 -1 0 0 30 677 69 0 678 675 679 0 +
0 0 0 1224646799147352e-31 0 1 16 678 57 0 ?680 670 0 677 0 0 12 30 679 68 0 670
 677 681 0 +2449293598294705e-33 0 .02 1 0 0 16 670 53 0 ?641 648 678 679 0 0 12
 30 681 67 0 648 679 682 0 +.02 0 0 -1734723475976805e-31 0 -1 16 648 49 0 ?643
 654 670 681 0 0 12 30 682 66 0 654 681 683 0 +0 0 0 -1 0 0 16 654 45 0 ?650 666
 648 682 0 0 12 30 683 90 0 674 682 684 0 +0 .42 0 0 -1 0 16 674 74 0 ?655 671 6
31 683 0 0 12 30 684 91 0 671 683 618 0 +.02 .42 0 0 -1 0 16 671 75 0 ?649 623 6
74 684 0 0 12 30 618 92 0 623 684 27 0 +.02 .42 .02 0 -1 0 17 649 0 652 650 630
 642 645 671 0 653 +15 652 78 0 650 685 0 17 630 0 652 649 632 625 624 631 0 0 -
17 653 0 686 647 687 642 650 654 0 0 -15 686 44 0 687 688 0 17 647 0 686 639 653
 640 643 648 0 0 -17 687 0 686 653 639 619 680 678 0 0 -17 639 0 686 687 647 637
 641 670 0 622 -17 680 0 689 667 655 637 687 678 0 0 +15 689 84 0 680 615 0 17 6
67 0 689 665 680 651 622 30 0 0 -17 655 0 689 680 665 619 632 674 0 687 +17 665
 0 689 655 667 31 628 666 0 0 -17 632 0 652 630 650 31 655 674 0 665 -16 666 4 0
 ?628 661 654 676 0 0 12 30 676 5 0 666 0 668 0 +0 .42 0 1224646799147352e-31 0
 1 17 622 0 658 641 656 637 667 30 0 680 +14 615 85 690 ?669 0 689 25 26 -0 0 66
9 0 621 81 1 690 173 155 615 691 0 0 692 693 14 669 83 692 ?672 615 658 25 617 -
0 0 672 615 621 13 621 29 0 0 0 0 0 0 29 615 81 1 692 174 155 669 694 0 690 695
 696 14 672 81 695 ?685 669 644 25 697 -0 0 685 669 621 50 617 88 0 669 697 26 0
 +2449293598294705e-33 .42 .02 0 0 -1 -1 0 0 50 697 87 0 672 698 617 0 +.02 .42
 0 -1 0 1734723475976805e-31 1734723475976805e-31 0 1 50 698 86 0 685 699 697 0
 +0 .42 0 0 0 1 1 0 0 14 685 79 700 ?662 672 652 25 698 -0 0 662 672 621 50 699
 65 0 688 701 698 0 +0 0 0 0 1 0 0 0 1 14 688 43 702 ?0 662 686 25 699 -0 0 0 66
2 621 50 701 2 0 662 0 699 0 +0 .42 0 0 1 0 0 0 1 14 662 1 703 ?688 685 627 25 7
01 +0 0 688 685 621 81 1 703 177 155 662 704 0 700 702 705 81 1 704 171 164 662
 0 703 706 0 707 81 1 700 176 155 685 708 0 695 703 709 81 1 702 178 155 688 706
 0 703 0 710 83 3 705 .792156862745098 .819607843137255 .933333333333333 81 1 70
6 169 164 688 0 702 708 704 711 83 3 710 .792156862745098 .819607843137255 .9333
33333333333 81 1 708 167 164 685 0 700 712 706 713 82 1 711 -490798973 81 1 712
 165 164 672 0 695 694 708 714 82 1 713 -489881469 81 1 695 175 155 672 712 0 69
2 700 715 81 1 694 163 164 669 0 692 691 712 716 82 1 714 -489619325 81 1 691 16
1 164 615 0 690 0 694 717 82 1 716 -489357181 82 1 717 -489095037 83 3 715 .7921
56862745098 .819607843137255 .933333333333333 83 3 709 .792156862745098 .8196078
43137255 .933333333333333 82 1 707 -496435069 83 3 696 .792156862745098 .8196078
43137255 .933333333333333 83 3 693 .792156862745098 .819607843137255 .9333333333
33333 19 616 95 0 12 0 29 25 S0 74 20 614 3 0 0 704 702 22 0 0 0 0 0 0 0 0 0 0 0
 0 0 0 0 0 0 84 22 613 wing_inner_cross_brace81 1 10 173 5 7 0 0 0 0 718 70 11 0
 4 T7 0 0 3 20 1 719 719 13 13 94 0 7 0 720 0 0 721 0 50 14 89 0 720 722 0 0 +0
 .5 0 1 0 -1224646799147352e-31 -1224646799147352e-31 0 -1 30 15 93 0 18 723 0 0
 +2449293598294705e-33 .5 .02 0 -1 0 29 16 70 0 724 725 0 0 0 0 19 17 28 0 7 721
 0 726 V0 16 18 77 0 ?727 0 728 15 0 0 7 18 19 25 0 729 0 730 731 ?7 17 729 0 73
2 733 734 19 735 736 0 737 +18 730 22 0 734 19 738 739 ?7 29 731 27 0 19 739 740
 0 .5 0 29 739 24 0 730 741 731 .02 .5 0 29 740 73 0 742 731 743 244929359829470
5e-33 0 .02 18 742 64 0 744 745 0 740 ?7 29 743 72 0 745 740 725 .02 0 .02 18 74
5 63 0 746 747 742 743 ?7 29 725 71 0 747 743 16 .02 0 0 18 747 62 0 748 724 745
 725 ?7 17 748 0 749 750 751 747 752 753 0 754 +18 724 61 0 755 756 747 16 ?7 17
 755 0 757 737 754 724 758 759 0 760 +18 756 16 0 761 738 724 762 ?7 17 761 0 76
3 727 764 756 765 766 0 733 -18 738 19 0 765 730 756 741 ?7 29 762 18 0 756 0 74
1 2449293598294705e-33 .5 .02 29 741 21 0 738 762 739 .02 .5 .02 17 765 0 732 73
4 733 738 761 766 0 764 +15 732 3 0 733 767 0 17 734 0 732 729 765 730 768 769 0
 750 +17 733 0 732 765 729 756 770 771 0 772 +16 766 7 0 ?765 769 771 773 0 0 7
 17 764 0 763 761 746 738 751 728 0 768 -15 763 82 0 746 774 0 17 746 0 763 764
 727 745 744 775 0 751 +17 751 0 749 748 768 745 764 728 0 752 +16 728 76 0 ?751
 18 776 723 0 0 7 17 768 0 749 751 750 738 734 769 0 0 -15 749 80 0 748 777 0 17
 750 0 749 768 748 730 754 776 0 735 -16 769 10 0 ?734 736 766 778 0 0 7 16 736
 13 0 ?729 779 769 780 0 0 7 30 778 11 0 769 773 780 0 +.02 .5 0 -17347234759768
05e-31 0 -1 30 773 8 0 766 781 778 0 +2449293598294705e-33 .5 .02 1 0 0 30 780 1
4 0 736 778 782 0 +0 .5 0 -1 0 0 30 782 69 0 783 780 784 0 +0 0 0 12246467991473
52e-31 0 1 16 783 57 0 ?785 775 0 782 0 0 7 30 784 68 0 775 782 786 0 +244929359
8294705e-33 0 .02 1 0 0 16 775 53 0 ?746 753 783 784 0 0 7 30 786 67 0 753 784 7
87 0 +.02 0 0 -1734723475976805e-31 0 -1 16 753 49 0 ?748 759 775 786 0 0 7 30 7
87 66 0 759 786 788 0 +0 0 0 -1 0 0 16 759 45 0 ?755 771 753 787 0 0 7 30 788 90
 0 779 787 789 0 +0 .5 0 0 -1 0 16 779 74 0 ?760 776 736 788 0 0 7 30 789 91 0 7
76 788 723 0 +.02 .5 0 0 -1 0 16 776 75 0 ?754 728 779 789 0 0 7 30 723 92 0 728
 789 15 0 +.02 .5 .02 0 -1 0 17 754 0 757 755 735 747 750 776 0 758 +15 757 78 0
 755 790 0 17 735 0 757 754 737 730 729 736 0 0 -17 758 0 791 752 792 747 755 75
9 0 0 -15 791 44 0 792 793 0 17 752 0 791 744 758 745 748 753 0 0 -17 792 0 791
 758 744 724 785 783 0 0 -17 744 0 791 792 752 742 746 775 0 727 -17 785 0 794 7
72 760 742 792 783 0 0 +15 794 84 0 785 720 0 17 772 0 794 770 785 756 727 18 0
 0 -17 760 0 794 785 770 724 737 779 0 792 +17 770 0 794 760 772 19 733 771 0 0
 -17 737 0 757 735 755 19 760 779 0 770 -16 771 4 0 ?733 766 759 781 0 0 7 30 78
1 5 0 771 0 773 0 +0 .5 0 1224646799147352e-31 0 1 17 727 0 763 746 761 742 772
 18 0 785 +14 720 85 795 ?774 0 794 13 14 -0 0 774 0 726 81 1 795 167 155 720 79
6 0 0 797 798 14 774 83 797 ?777 720 763 13 722 -0 0 777 720 726 13 726 29 0 0 0
 0 0 0 17 720 81 1 797 168 155 774 799 0 795 800 801 14 777 81 800 ?790 774 749
 13 802 -0 0 790 774 726 50 722 88 0 774 802 14 0 +2449293598294705e-33 .5 .02 0
 0 -1 -1 0 0 50 802 87 0 777 803 722 0 +.02 .5 0 -1 0 1734723475976805e-31 17347
23475976805e-31 0 1 50 803 86 0 790 804 802 0 +0 .5 0 0 0 1 1 0 0 14 790 79 805
 ?767 777 757 13 803 -0 0 767 777 726 50 804 65 0 793 806 803 0 +0 0 0 0 1 0 0 0
 1 14 793 43 807 ?0 767 791 13 804 -0 0 0 767 726 50 806 2 0 767 0 804 0 +0 .5 0
 0 1 0 0 0 1 14 767 1 808 ?793 790 732 13 806 +0 0 793 790 726 81 1 808 171 155
 767 809 0 805 807 810 81 1 809 165 164 767 0 808 811 0 812 81 1 805 170 155 790
 813 0 800 808 814 81 1 807 172 155 793 811 0 808 0 815 83 3 810 .79215686274509
8 .819607843137255 .933333333333333 81 1 811 163 164 793 0 807 813 809 816 83 3
 815 .792156862745098 .819607843137255 .933333333333333 81 1 813 161 164 790 0 8
05 817 811 818 82 1 816 -1966538618 81 1 817 159 164 777 0 800 799 813 819 82 1
 818 -1965621114 81 1 800 169 155 777 817 0 797 805 820 81 1 799 157 164 774 0 7
97 796 817 821 82 1 819 -1965358970 81 1 796 155 164 720 0 795 0 799 822 82 1 82
1 -1965096826 82 1 822 -1964834682 83 3 820 .792156862745098 .819607843137255 .9
33333333333333 83 3 814 .792156862745098 .819607843137255 .933333333333333 82 1
 812 -1972174714 83 3 801 .792156862745098 .819607843137255 .933333333333333 83
 3 798 .792156862745098 .819607843137255 .933333333333333 19 721 95 0 7 0 17 13
 S0 74 20 719 3 0 0 809 807 10 0 0 0 0 0 0 0 0 0 0 0 0 0 0 0 0 0 84 8 718 2020_5
0074 20 6 1 0 0 2 0 0 0 0 0 0 0 0 0 0 0 0 0 0 0 0 0 0 0 1 0 
